<svg xmlns="http://www.w3.org/2000/svg" viewBox="0 0 940 704" fill="none"><title>Kanto · Red / Blue</title><desc>Authored flat interface asset. The selected ticket-35 front elevation combines RG and anime references. The exterior keeps ticket 44’s level arrow. Hidden surfaces and hinge clearance are reconstructed.</desc><defs><mask id="export-red-red-body-apertures"><rect width="100%" height="100%" fill="white"/><rect x="113" y="236" width="274" height="218" rx="3" fill="black"/></mask><mask id="export-red-red-lid-apertures"><rect width="100%" height="100%" fill="white"/><rect x="519" y="235" width="313" height="112" rx="3" fill="black"/></mask><mask id="export-red-red-hinge-apertures"><rect width="100%" height="100%" fill="white"/></mask></defs><g id="export-red-body" mask="url(#export-red-red-body-apertures)"><defs><linearGradient id="export-red-red-shell" x2="1" y2="1"><stop stop-color="#df3c53"/><stop offset=".47" stop-color="#ce2d45"/><stop offset="1" stop-color="#bd2540"/></linearGradient><radialGradient id="export-red-red-lens" cx=".32" cy=".28"><stop stop-color="#8cefff"/><stop offset=".5" stop-color="#30a8ce"/><stop offset="1" stop-color="#176c98"/></radialGradient></defs><polygon points="50,60 70,40 446,40 466,60 466,664 70,664 50,644" fill="url(#export-red-red-shell)" stroke="#530b1c" stroke-width="3" stroke-linejoin="round"/>
      <path d="M59 178H244L337 124H458M59 184H246L339 131H458" stroke="#740e28" stroke-width="5"/><path d="M61 63V161M65 199V636Q65 648 80 648H447" stroke="#f7737e" stroke-width="3" opacity=".65"/>
      <circle cx="107" cy="101" r="43" fill="#c7d0c9" stroke="#550c1c" stroke-width="2"/><circle cx="107" cy="101" r="35" fill="url(#export-red-red-lens)" stroke="#194b63" stroke-width="2"/><circle cx="95" cy="88" r="11" fill="#bfeffa" stroke="#bfeffa" stroke-width="2"/>
      <circle cx="174" cy="74" r="11" fill="#b21935" stroke="#550c1c" stroke-width="2"/><circle cx="208" cy="74" r="11" fill="#eac347" stroke="#550c1c" stroke-width="2"/><circle cx="242" cy="74" r="11" fill="#45945b" stroke="#550c1c" stroke-width="2"/>
      <polygon points="88,204 412,204 412,496 114,496 88,470" fill="#d6dacf" stroke="#62675d" stroke-width="3" stroke-linejoin="round"/><path d="M94 214H402V484" stroke="#f8f9e8" stroke-width="4"/>
      <rect x="107" y="230" width="286" height="231" rx="7" fill="#333b3b" stroke="#4c5149" stroke-width="2"/><circle cx="235" cy="219" r="3" fill="#a62937" stroke="#550c1c" stroke-width="2"/><circle cx="252" cy="219" r="3" fill="#a62937" stroke="#550c1c" stroke-width="2"/>
      <path d="M325 469H385M325 476H385M325 483H385" stroke="#717b78" stroke-width="3"/>
      <rect x="82" y="521" width="53" height="51" rx="24.5" fill="#71263a" stroke="#641b2f" stroke-width="2"/><rect x="159" y="517" width="66" height="20" rx="5" fill="#71263a" stroke="#641b2f" stroke-width="2"/><rect x="235" y="517" width="66" height="20" rx="5" fill="#71263a" stroke="#641b2f" stroke-width="2"/><rect x="102" y="459" width="24" height="22" rx="10" fill="#71263a" stroke="#641b2f" stroke-width="2"/><rect x="158" y="566" width="141" height="60" rx="4" fill="#607f46" stroke="#550c1c" stroke-width="2"/><text data-readout="entry" x="172" y="589" fill="#163520" font-family="Departure,monospace" font-size="11">ENTRY 001</text><text data-readout="section" x="172" y="608" fill="#163520" font-family="Departure,monospace" font-size="9">PROFILE</text>
      <polygon points="348,544 374,544 374,573 403,573 403,599 374,599 374,628 348,628 348,599 319,599 319,573 348,573" fill="#0e151b" stroke="#10151b" stroke-width="7" stroke-linejoin="round"/><g data-rocker="red-pad" data-button-finish="gen1"><polygon points="348,544 374,544 374,573 403,573 403,599 374,599 374,628 348,628 348,599 319,599 319,573 348,573" fill="#20262b" stroke="#36414a" stroke-width="1" stroke-linejoin="round"/><path d="M348 546H374" stroke="#5c6970" stroke-width="2"/><circle cx="361" cy="586" r="6" fill="#161d22"/></g>
      <text x="90" y="591" fill="#73152b" font-family="Departure,monospace" font-size="9">B / BACK</text><path d="M332 647H345M352 647H365M372 647H385" stroke="#591027" stroke-width="3"/><g id="export-red-back"><g id="export-red-back-base"><rect x="84" y="523" width="49" height="49" rx="24.5" fill="#26303a"/></g><g id="export-red-back-face"><rect x="84" y="523" width="49" height="45" rx="24.5" fill="#21262c" stroke="#233037" stroke-width="1.5"/></g></g><g id="export-red-menu"><g id="export-red-menu-base"><rect x="161" y="519" width="62" height="18" rx="5" fill="#26303a"/></g><g id="export-red-menu-face"><rect x="161" y="519" width="62" height="14" rx="5" fill="#d7424c" stroke="#233037" stroke-width="1.5"/></g></g><g id="export-red-entry"><g id="export-red-entry-base"><rect x="237" y="519" width="62" height="18" rx="5" fill="#26303a"/></g><g id="export-red-entry-face"><rect x="237" y="519" width="62" height="14" rx="5" fill="#457fbc" stroke="#233037" stroke-width="1.5"/></g></g><g id="export-red-bezel"><g id="export-red-bezel-base"><rect x="104" y="461" width="20" height="20" rx="10" fill="#26303a"/></g><g id="export-red-bezel-face"><rect x="104" y="461" width="20" height="16" rx="10" fill="#d7424c" stroke="#233037" stroke-width="1.5"/></g></g><g id="export-red-up"></g><g id="export-red-left"></g><g id="export-red-right"></g><g id="export-red-down"></g></g><g id="export-red-lid" mask="url(#export-red-red-lid-apertures)"><polygon points="466,112 590,112 688,170 862,170 882,190 882,644 862,664 466,664" fill="#c62943" stroke="#530b1c" stroke-width="3" stroke-linejoin="round"/><path d="M483 126H585L683 185H868V637Q868 650 855 650H483Z" fill="none" stroke="#711029" stroke-width="3"/><path d="M488 130H583L681 188H866" stroke="#f06775" stroke-width="3"/>
      <rect x="512" y="228" width="327" height="126" rx="6" fill="#17252a" stroke="#690d27" stroke-width="2"/><rect x="517" y="380" width="60" height="47" rx="5" fill="#71263a" stroke="#641b2f" stroke-width="2"/><rect x="581" y="380" width="60" height="47" rx="5" fill="#71263a" stroke="#641b2f" stroke-width="2"/><rect x="645" y="380" width="60" height="47" rx="5" fill="#71263a" stroke="#641b2f" stroke-width="2"/><rect x="709" y="380" width="60" height="47" rx="5" fill="#71263a" stroke="#641b2f" stroke-width="2"/><rect x="773" y="380" width="60" height="47" rx="5" fill="#71263a" stroke="#641b2f" stroke-width="2"/><rect x="517" y="433" width="60" height="47" rx="5" fill="#71263a" stroke="#641b2f" stroke-width="2"/><rect x="581" y="433" width="60" height="47" rx="5" fill="#71263a" stroke="#641b2f" stroke-width="2"/><rect x="645" y="433" width="60" height="47" rx="5" fill="#71263a" stroke="#641b2f" stroke-width="2"/><rect x="709" y="433" width="60" height="47" rx="5" fill="#71263a" stroke="#641b2f" stroke-width="2"/><rect x="773" y="433" width="60" height="47" rx="5" fill="#71263a" stroke="#641b2f" stroke-width="2"/><rect x="517" y="519" width="58" height="33" rx="5" fill="#71263a" stroke="#641b2f" stroke-width="2"/><rect x="579" y="519" width="58" height="33" rx="5" fill="#71263a" stroke="#641b2f" stroke-width="2"/><rect x="661" y="493" width="49" height="17" rx="5" fill="#71263a" stroke="#641b2f" stroke-width="2"/><rect x="716" y="493" width="49" height="17" rx="5" fill="#71263a" stroke="#641b2f" stroke-width="2"/><rect x="783" y="516" width="49" height="47" rx="22.5" fill="#71263a" stroke="#641b2f" stroke-width="2"/><rect x="519" y="592" width="145" height="45" rx="4" fill="#172a2b" stroke="#550c1c" stroke-width="2"/><rect x="681" y="592" width="151" height="45" rx="4" fill="#172a2b" stroke="#550c1c" stroke-width="2"/><text data-readout="region" x="533" y="620" fill="#98b39b" font-family="Departure,monospace" font-size="11">KANTO</text><text data-readout="owner" x="695" y="620" fill="#98b39b" font-family="Departure,monospace" font-size="11">SM / 001</text>
      <path d="M678 540H685M693 540H700M708 540H715M723 540H730M678 549H685M693 549H700M708 549H715M723 549H730" stroke="#6a1930" stroke-width="3"/><g id="export-red-key-1"><g id="export-red-key-1-base"><rect x="519" y="382" width="56" height="45" rx="5" fill="#26303a"/></g><g id="export-red-key-1-face"><rect x="519" y="382" width="56" height="41" rx="5" fill="#5eafcb" stroke="#233037" stroke-width="1.5"/></g></g><g id="export-red-key-2"><g id="export-red-key-2-base"><rect x="583" y="382" width="56" height="45" rx="5" fill="#26303a"/></g><g id="export-red-key-2-face"><rect x="583" y="382" width="56" height="41" rx="5" fill="#5eafcb" stroke="#233037" stroke-width="1.5"/></g></g><g id="export-red-key-3"><g id="export-red-key-3-base"><rect x="647" y="382" width="56" height="45" rx="5" fill="#26303a"/></g><g id="export-red-key-3-face"><rect x="647" y="382" width="56" height="41" rx="5" fill="#5eafcb" stroke="#233037" stroke-width="1.5"/></g></g><g id="export-red-key-4"><g id="export-red-key-4-base"><rect x="711" y="382" width="56" height="45" rx="5" fill="#26303a"/></g><g id="export-red-key-4-face"><rect x="711" y="382" width="56" height="41" rx="5" fill="#5eafcb" stroke="#233037" stroke-width="1.5"/></g></g><g id="export-red-key-5"><g id="export-red-key-5-base"><rect x="775" y="382" width="56" height="45" rx="5" fill="#26303a"/></g><g id="export-red-key-5-face"><rect x="775" y="382" width="56" height="41" rx="5" fill="#5eafcb" stroke="#233037" stroke-width="1.5"/></g></g><g id="export-red-key-6"><g id="export-red-key-6-base"><rect x="519" y="435" width="56" height="45" rx="5" fill="#26303a"/></g><g id="export-red-key-6-face"><rect x="519" y="435" width="56" height="41" rx="5" fill="#5eafcb" stroke="#233037" stroke-width="1.5"/></g></g><g id="export-red-key-7"><g id="export-red-key-7-base"><rect x="583" y="435" width="56" height="45" rx="5" fill="#26303a"/></g><g id="export-red-key-7-face"><rect x="583" y="435" width="56" height="41" rx="5" fill="#5eafcb" stroke="#233037" stroke-width="1.5"/></g></g><g id="export-red-key-8"><g id="export-red-key-8-base"><rect x="647" y="435" width="56" height="45" rx="5" fill="#26303a"/></g><g id="export-red-key-8-face"><rect x="647" y="435" width="56" height="41" rx="5" fill="#5eafcb" stroke="#233037" stroke-width="1.5"/></g></g><g id="export-red-key-9"><g id="export-red-key-9-base"><rect x="711" y="435" width="56" height="45" rx="5" fill="#26303a"/></g><g id="export-red-key-9-face"><rect x="711" y="435" width="56" height="41" rx="5" fill="#5eafcb" stroke="#233037" stroke-width="1.5"/></g></g><g id="export-red-key-10"><g id="export-red-key-10-base"><rect x="775" y="435" width="56" height="45" rx="5" fill="#26303a"/></g><g id="export-red-key-10-face"><rect x="775" y="435" width="56" height="41" rx="5" fill="#5eafcb" stroke="#233037" stroke-width="1.5"/></g></g><g id="export-red-white-left"><g id="export-red-white-left-base"><rect x="519" y="521" width="54" height="31" rx="5" fill="#26303a"/></g><g id="export-red-white-left-face"><rect x="519" y="521" width="54" height="27" rx="5" fill="#e5e5d9" stroke="#233037" stroke-width="1.5"/></g></g><g id="export-red-white-right"><g id="export-red-white-right-base"><rect x="581" y="521" width="54" height="31" rx="5" fill="#26303a"/></g><g id="export-red-white-right-face"><rect x="581" y="521" width="54" height="27" rx="5" fill="#e5e5d9" stroke="#233037" stroke-width="1.5"/></g></g><g id="export-red-aux-left"><g id="export-red-aux-left-base"><rect x="663" y="495" width="45" height="15" rx="5" fill="#26303a"/></g><g id="export-red-aux-left-face"><rect x="663" y="495" width="45" height="11" rx="5" fill="#21262c" stroke="#233037" stroke-width="1.5"/></g></g><g id="export-red-aux-right"><g id="export-red-aux-right-base"><rect x="718" y="495" width="45" height="15" rx="5" fill="#26303a"/></g><g id="export-red-aux-right-face"><rect x="718" y="495" width="45" height="11" rx="5" fill="#21262c" stroke="#233037" stroke-width="1.5"/></g></g><g id="export-red-power"><g id="export-red-power-base"><rect x="785" y="518" width="45" height="45" rx="22.5" fill="#26303a"/></g><g id="export-red-power-face"><rect x="785" y="518" width="45" height="41" rx="22.5" fill="#edc936" stroke="#233037" stroke-width="1.5"/></g></g></g><g id="export-red-hinge" mask="url(#export-red-red-hinge-apertures)"><defs><linearGradient id="export-red-red-hinge"><stop stop-color="#6c0d27"/><stop offset=".35" stop-color="#e84a60"/><stop offset=".65" stop-color="#ce2c48"/><stop offset="1" stop-color="#690c25"/></linearGradient></defs><rect x="451" y="115" width="29" height="548" rx="9" fill="url(#export-red-red-hinge)" stroke="#6c1027" stroke-width="2"/><path d="M452 143H478M452 152H478M452 619H478M452 628H478" stroke="#740e29" stroke-width="3"/></g></svg>