<svg xmlns="http://www.w3.org/2000/svg" viewBox="0 0 500 680" role="img" aria-labelledby="title desc">
  <title id="title">Kanto Pokédex closed outer leaf</title>
  <desc id="desc">Red outer cover with lens, signal lamps, yellow release latch, and bottom speaker slot.</desc>
  <defs>
    <linearGradient id="red" x1="0" y1="0" x2="1" y2="1">
      <stop offset="0" stop-color="#ff1748"/><stop offset=".58" stop-color="#e50035"/><stop offset="1" stop-color="#b8002a"/>
    </linearGradient>
    <radialGradient id="lens" cx="34%" cy="24%" r="70%">
      <stop offset="0" stop-color="#77dbff"/><stop offset=".25" stop-color="#18a8ef"/><stop offset="1" stop-color="#0369a1"/>
    </radialGradient>
  </defs>
  <path d="M24 10H476Q490 10 490 26V650Q490 670 470 670H28Q10 670 10 650V30Q10 10 24 10Z" fill="url(#red)" stroke="#22000a" stroke-width="7"/>
  <path d="M14 148H164Q203 148 232 116L263 82Q283 60 317 60H487" fill="none" stroke="#2d0010" stroke-width="8"/>
  <circle cx="71" cy="73" r="47" fill="#eef7f8" stroke="#21000a" stroke-width="7"/>
  <circle cx="71" cy="73" r="35" fill="url(#lens)" stroke="#083449" stroke-width="6"/>
  <ellipse cx="58" cy="56" rx="10" ry="15" fill="#b9edff" opacity=".88"/>
  <circle cx="150" cy="54" r="11" fill="#ef334f" stroke="#29000d" stroke-width="5"/>
  <circle cx="187" cy="54" r="11" fill="#ffd31a" stroke="#29000d" stroke-width="5"/>
  <circle cx="224" cy="54" r="11" fill="#42bd65" stroke="#29000d" stroke-width="5"/>
  <path d="M26 346l47 26-47 27Z" fill="#ffd31a" stroke="#29000d" stroke-width="6"/>
  <rect x="176" y="604" width="166" height="15" rx="8" fill="#8d001f" stroke="#29000d" stroke-width="5"/>
  <path d="M20 645H480" stroke="#ff496a" stroke-width="3" opacity=".55"/>
</svg>
